<svg width="598" height="362" viewBox="0 0 598 362" fill="none" xmlns="http://www.w3.org/2000/svg">
<path d="M8.652 355C8.47867 355 8.33133 354.939 8.21 354.818C8.08867 354.697 8.028 354.549 8.028 354.376V337.45C8.028 337.259 8.08867 337.103 8.21 336.982C8.33133 336.861 8.47867 336.8 8.652 336.8H20.56C20.7507 336.8 20.898 336.861 21.002 336.982C21.1233 337.103 21.184 337.259 21.184 337.45V339.27C21.184 339.443 21.1233 339.591 21.002 339.712C20.898 339.833 20.7507 339.894 20.56 339.894H11.642V344.054H16.036C17.9947 344.054 19.5287 344.539 20.638 345.51C21.7473 346.481 22.302 347.798 22.302 349.462C22.302 350.173 22.1633 350.866 21.886 351.542C21.626 352.201 21.236 352.79 20.716 353.31C20.196 353.83 19.546 354.246 18.766 354.558C17.986 354.853 17.076 355 16.036 355H8.652ZM11.642 352.244H15.672C16.296 352.244 16.8247 352.114 17.258 351.854C17.6913 351.594 18.0207 351.247 18.246 350.814C18.4713 350.381 18.584 349.913 18.584 349.41C18.584 348.647 18.3413 348.015 17.856 347.512C17.3707 347.009 16.6427 346.758 15.672 346.758H11.642V352.244ZM46.5454 355C46.372 355 46.2247 354.939 46.1034 354.818C45.982 354.697 45.9214 354.549 45.9214 354.376V340.05H40.2794V343.326C40.2794 345.406 40.1667 347.183 39.9414 348.656C39.7334 350.129 39.3867 351.325 38.9014 352.244C38.416 353.145 37.7574 353.821 36.9254 354.272C36.0934 354.705 35.0534 354.939 33.8054 354.974C33.632 354.991 33.476 354.939 33.3374 354.818C33.216 354.679 33.1554 354.523 33.1554 354.35V352.4C33.1554 352.036 33.3547 351.828 33.7534 351.776C34.2734 351.689 34.7154 351.447 35.0794 351.048C35.4607 350.649 35.7727 350.086 36.0154 349.358C36.2754 348.63 36.466 347.729 36.5874 346.654C36.7087 345.562 36.7694 344.297 36.7694 342.858V337.424C36.7694 337.251 36.83 337.103 36.9514 336.982C37.0727 336.861 37.22 336.8 37.3934 336.8H48.8854C49.076 336.8 49.232 336.861 49.3534 336.982C49.4747 337.103 49.5354 337.259 49.5354 337.45V354.376C49.5354 354.549 49.4747 354.697 49.3534 354.818C49.232 354.939 49.076 355 48.8854 355H46.5454ZM62.1031 355C61.9645 355 61.8345 354.948 61.7131 354.844C61.6091 354.74 61.5571 354.61 61.5571 354.454C61.5571 354.385 61.5745 354.307 61.6091 354.22L67.8751 337.45C67.9271 337.277 68.0225 337.129 68.1611 337.008C68.3171 336.869 68.5251 336.8 68.7851 336.8H71.6191C71.8791 336.8 72.0785 336.869 72.2171 337.008C72.3558 337.129 72.4598 337.277 72.5291 337.45L78.7951 354.22C78.8125 354.307 78.8211 354.385 78.8211 354.454C78.8211 354.61 78.7691 354.74 78.6651 354.844C78.5611 354.948 78.4398 355 78.3011 355H76.0391C75.7965 355 75.6145 354.948 75.4931 354.844C75.3891 354.723 75.3198 354.61 75.2851 354.506L74.0631 351.334H66.3411L65.1191 354.506C65.0845 354.61 65.0065 354.723 64.8851 354.844C64.7811 354.948 64.6078 355 64.3651 355H62.1031ZM67.2511 348.344H73.1531L70.1891 340.31L67.2511 348.344ZM91.4925 355C91.3191 355 91.1718 354.939 91.0505 354.818C90.9291 354.697 90.8685 354.549 90.8685 354.376V337.45C90.8685 337.259 90.9291 337.103 91.0505 336.982C91.1718 336.861 91.3191 336.8 91.4925 336.8H102.1C102.291 336.8 102.447 336.861 102.568 336.982C102.69 337.103 102.75 337.259 102.75 337.45V339.27C102.75 339.443 102.69 339.591 102.568 339.712C102.447 339.833 102.291 339.894 102.1 339.894H94.4825V354.376C94.4825 354.549 94.4218 354.697 94.3005 354.818C94.1965 354.939 94.0491 355 93.8585 355H91.4925ZM121.6 355.26C120.057 355.26 118.731 355.009 117.622 354.506C116.512 353.986 115.646 353.197 115.022 352.14C114.398 351.065 114.06 349.731 114.008 348.136C113.99 347.391 113.982 346.654 113.982 345.926C113.982 345.198 113.99 344.453 114.008 343.69C114.06 342.113 114.406 340.795 115.048 339.738C115.689 338.681 116.564 337.883 117.674 337.346C118.8 336.809 120.109 336.54 121.6 336.54C123.09 336.54 124.399 336.809 125.526 337.346C126.652 337.883 127.536 338.681 128.178 339.738C128.819 340.795 129.166 342.113 129.218 343.69C129.252 344.453 129.27 345.198 129.27 345.926C129.27 346.654 129.252 347.391 129.218 348.136C129.166 349.731 128.828 351.065 128.204 352.14C127.58 353.197 126.704 353.986 125.578 354.506C124.468 355.009 123.142 355.26 121.6 355.26ZM121.6 352.27C122.726 352.27 123.645 351.941 124.356 351.282C125.066 350.606 125.448 349.514 125.5 348.006C125.534 347.243 125.552 346.541 125.552 345.9C125.552 345.241 125.534 344.539 125.5 343.794C125.465 342.789 125.274 341.974 124.928 341.35C124.598 340.709 124.148 340.249 123.576 339.972C123.004 339.677 122.345 339.53 121.6 339.53C120.872 339.53 120.222 339.677 119.65 339.972C119.078 340.249 118.618 340.709 118.272 341.35C117.942 341.974 117.76 342.789 117.726 343.794C117.708 344.539 117.7 345.241 117.7 345.9C117.7 346.541 117.708 347.243 117.726 348.006C117.778 349.514 118.159 350.606 118.87 351.282C119.58 351.941 120.49 352.27 121.6 352.27ZM146.932 355C146.758 355 146.611 354.939 146.49 354.818C146.368 354.697 146.308 354.549 146.308 354.376V339.998H141.498C141.324 339.998 141.177 339.937 141.056 339.816C140.934 339.695 140.874 339.547 140.874 339.374V337.45C140.874 337.259 140.934 337.103 141.056 336.982C141.177 336.861 141.324 336.8 141.498 336.8H154.758C154.948 336.8 155.104 336.861 155.226 336.982C155.347 337.103 155.408 337.259 155.408 337.45V339.374C155.408 339.547 155.347 339.695 155.226 339.816C155.104 339.937 154.948 339.998 154.758 339.998H149.974V354.376C149.974 354.549 149.913 354.697 149.792 354.818C149.67 354.939 149.514 355 149.324 355H146.932ZM168.29 355C168.117 355 167.969 354.939 167.848 354.818C167.727 354.697 167.666 354.549 167.666 354.376V337.45C167.666 337.259 167.727 337.103 167.848 336.982C167.969 336.861 168.117 336.8 168.29 336.8H175.83C177.234 336.8 178.378 337.017 179.262 337.45C180.146 337.866 180.796 338.447 181.212 339.192C181.645 339.937 181.862 340.804 181.862 341.792C181.862 342.451 181.741 343.031 181.498 343.534C181.273 344.019 180.987 344.418 180.64 344.73C180.311 345.042 179.981 345.285 179.652 345.458C180.328 345.77 180.926 346.29 181.446 347.018C181.966 347.746 182.226 348.613 182.226 349.618C182.226 350.658 181.992 351.585 181.524 352.4C181.056 353.215 180.363 353.856 179.444 354.324C178.525 354.775 177.39 355 176.038 355H168.29ZM171.28 352.244H175.622C176.558 352.244 177.269 351.993 177.754 351.49C178.239 350.97 178.482 350.346 178.482 349.618C178.482 348.855 178.231 348.223 177.728 347.72C177.243 347.217 176.541 346.966 175.622 346.966H171.28V352.244ZM171.28 344.262H175.362C176.281 344.262 176.965 344.045 177.416 343.612C177.884 343.161 178.118 342.581 178.118 341.87C178.118 341.142 177.884 340.579 177.416 340.18C176.965 339.764 176.281 339.556 175.362 339.556H171.28V344.262ZM202.104 355.26C200.562 355.26 199.236 355.009 198.126 354.506C197.017 353.986 196.15 353.197 195.526 352.14C194.902 351.065 194.564 349.731 194.512 348.136C194.495 347.391 194.486 346.654 194.486 345.926C194.486 345.198 194.495 344.453 194.512 343.69C194.564 342.113 194.911 340.795 195.552 339.738C196.194 338.681 197.069 337.883 198.178 337.346C199.305 336.809 200.614 336.54 202.104 336.54C203.595 336.54 204.904 336.809 206.03 337.346C207.157 337.883 208.041 338.681 208.682 339.738C209.324 340.795 209.67 342.113 209.722 343.69C209.757 344.453 209.774 345.198 209.774 345.926C209.774 346.654 209.757 347.391 209.722 348.136C209.67 349.731 209.332 351.065 208.708 352.14C208.084 353.197 207.209 353.986 206.082 354.506C204.973 355.009 203.647 355.26 202.104 355.26ZM202.104 352.27C203.231 352.27 204.15 351.941 204.86 351.282C205.571 350.606 205.952 349.514 206.004 348.006C206.039 347.243 206.056 346.541 206.056 345.9C206.056 345.241 206.039 344.539 206.004 343.794C205.97 342.789 205.779 341.974 205.432 341.35C205.103 340.709 204.652 340.249 204.08 339.972C203.508 339.677 202.85 339.53 202.104 339.53C201.376 339.53 200.726 339.677 200.154 339.972C199.582 340.249 199.123 340.709 198.776 341.35C198.447 341.974 198.265 342.789 198.23 343.794C198.213 344.539 198.204 345.241 198.204 345.9C198.204 346.541 198.213 347.243 198.23 348.006C198.282 349.514 198.664 350.606 199.374 351.282C200.085 351.941 200.995 352.27 202.104 352.27ZM223.432 355C223.259 355 223.112 354.939 222.99 354.818C222.869 354.697 222.808 354.549 222.808 354.376V337.45C222.808 337.259 222.869 337.103 222.99 336.982C223.112 336.861 223.259 336.8 223.432 336.8H230.4C231.752 336.8 232.931 337.017 233.936 337.45C234.942 337.866 235.722 338.507 236.276 339.374C236.831 340.223 237.108 341.289 237.108 342.572C237.108 343.872 236.831 344.947 236.276 345.796C235.722 346.628 234.942 347.252 233.936 347.668C232.931 348.084 231.752 348.292 230.4 348.292H226.526V354.376C226.526 354.549 226.466 354.697 226.344 354.818C226.24 354.939 226.093 355 225.902 355H223.432ZM226.474 345.406H230.27C231.276 345.406 232.047 345.172 232.584 344.704C233.122 344.219 233.39 343.508 233.39 342.572C233.39 341.705 233.139 341.012 232.636 340.492C232.134 339.955 231.345 339.686 230.27 339.686H226.474V345.406ZM250.191 355C250.018 355 249.87 354.939 249.749 354.818C249.628 354.697 249.567 354.541 249.567 354.35V337.45C249.567 337.259 249.628 337.103 249.749 336.982C249.87 336.861 250.026 336.8 250.217 336.8H252.557C252.748 336.8 252.895 336.861 252.999 336.982C253.12 337.103 253.181 337.259 253.181 337.45V349.384L261.735 337.216C261.804 337.129 261.9 337.043 262.021 336.956C262.142 336.852 262.298 336.8 262.489 336.8H264.647C264.82 336.8 264.968 336.861 265.089 336.982C265.21 337.103 265.271 337.259 265.271 337.45V354.376C265.271 354.549 265.21 354.697 265.089 354.818C264.968 354.939 264.82 355 264.647 355H262.307C262.116 355 261.96 354.939 261.839 354.818C261.718 354.697 261.657 354.549 261.657 354.376V342.676L253.129 354.584C253.077 354.653 252.99 354.74 252.869 354.844C252.748 354.948 252.583 355 252.375 355H250.191ZM283.569 355C283.396 355 283.248 354.939 283.127 354.818C283.006 354.697 282.945 354.549 282.945 354.376V339.998H278.135C277.962 339.998 277.814 339.937 277.693 339.816C277.572 339.695 277.511 339.547 277.511 339.374V337.45C277.511 337.259 277.572 337.103 277.693 336.982C277.814 336.861 277.962 336.8 278.135 336.8H291.395C291.586 336.8 291.742 336.861 291.863 336.982C291.984 337.103 292.045 337.259 292.045 337.45V339.374C292.045 339.547 291.984 339.695 291.863 339.816C291.742 339.937 291.586 339.998 291.395 339.998H286.611V354.376C286.611 354.549 286.55 354.697 286.429 354.818C286.308 354.939 286.152 355 285.961 355H283.569ZM304.927 355C304.754 355 304.606 354.939 304.485 354.818C304.364 354.697 304.303 354.549 304.303 354.376V337.45C304.303 337.259 304.364 337.103 304.485 336.982C304.606 336.861 304.754 336.8 304.927 336.8H316.367C316.558 336.8 316.714 336.861 316.835 336.982C316.956 337.103 317.017 337.259 317.017 337.45V339.166C317.017 339.339 316.956 339.487 316.835 339.608C316.714 339.729 316.558 339.79 316.367 339.79H307.813V344.392H315.795C315.986 344.392 316.142 344.453 316.263 344.574C316.384 344.678 316.445 344.825 316.445 345.016V346.628C316.445 346.819 316.384 346.975 316.263 347.096C316.142 347.2 315.986 347.252 315.795 347.252H307.813V352.01H316.575C316.766 352.01 316.922 352.071 317.043 352.192C317.164 352.313 317.225 352.469 317.225 352.66V354.376C317.225 354.549 317.164 354.697 317.043 354.818C316.922 354.939 316.766 355 316.575 355H304.927ZM342.135 355C341.962 355 341.814 354.939 341.693 354.818C341.572 354.697 341.511 354.549 341.511 354.376V340.05H335.869V343.326C335.869 345.406 335.756 347.183 335.531 348.656C335.323 350.129 334.976 351.325 334.491 352.244C334.006 353.145 333.347 353.821 332.515 354.272C331.683 354.705 330.643 354.939 329.395 354.974C329.222 354.991 329.066 354.939 328.927 354.818C328.806 354.679 328.745 354.523 328.745 354.35V352.4C328.745 352.036 328.944 351.828 329.343 351.776C329.863 351.689 330.305 351.447 330.669 351.048C331.05 350.649 331.362 350.086 331.605 349.358C331.865 348.63 332.056 347.729 332.177 346.654C332.298 345.562 332.359 344.297 332.359 342.858V337.424C332.359 337.251 332.42 337.103 332.541 336.982C332.662 336.861 332.81 336.8 332.983 336.8H344.475C344.666 336.8 344.822 336.861 344.943 336.982C345.064 337.103 345.125 337.259 345.125 337.45V354.376C345.125 354.549 345.064 354.697 344.943 354.818C344.822 354.939 344.666 355 344.475 355H342.135ZM359.435 355C359.261 355 359.114 354.939 358.993 354.818C358.871 354.697 358.811 354.549 358.811 354.376V337.424C358.811 337.251 358.871 337.103 358.993 336.982C359.114 336.861 359.261 336.8 359.435 336.8H361.801C361.991 336.8 362.139 336.861 362.243 336.982C362.364 337.103 362.425 337.251 362.425 337.424V343.378H365.779C367.841 343.378 369.436 343.863 370.563 344.834C371.689 345.787 372.253 347.209 372.253 349.098C372.253 350.19 372.01 351.187 371.525 352.088C371.039 352.989 370.32 353.7 369.367 354.22C368.413 354.74 367.217 355 365.779 355H359.435ZM362.425 352.114H365.623C366.559 352.114 367.278 351.837 367.781 351.282C368.283 350.71 368.535 349.973 368.535 349.072C368.535 348.136 368.283 347.434 367.781 346.966C367.295 346.498 366.576 346.264 365.623 346.264H362.425V352.114ZM385.457 355C385.284 355 385.136 354.948 385.015 354.844C384.894 354.723 384.833 354.567 384.833 354.376V337.45C384.833 337.259 384.894 337.103 385.015 336.982C385.136 336.861 385.284 336.8 385.457 336.8H387.823C388.014 336.8 388.161 336.861 388.265 336.982C388.386 337.103 388.447 337.259 388.447 337.45V344.158H396.117V337.45C396.117 337.259 396.178 337.103 396.299 336.982C396.42 336.861 396.568 336.8 396.741 336.8H399.081C399.272 336.8 399.428 336.861 399.549 336.982C399.67 337.103 399.731 337.259 399.731 337.45V354.376C399.731 354.549 399.67 354.697 399.549 354.818C399.428 354.939 399.272 355 399.081 355H396.741C396.568 355 396.42 354.939 396.299 354.818C396.178 354.697 396.117 354.549 396.117 354.376V347.408H388.447V354.376C388.447 354.549 388.386 354.697 388.265 354.818C388.161 354.939 388.014 355 387.823 355H385.457ZM414.018 355C413.845 355 413.698 354.939 413.576 354.818C413.455 354.697 413.394 354.549 413.394 354.376V337.424C413.394 337.251 413.455 337.103 413.576 336.982C413.698 336.861 413.845 336.8 414.018 336.8H416.384C416.575 336.8 416.722 336.861 416.826 336.982C416.948 337.103 417.008 337.251 417.008 337.424V343.378H419.894C421.957 343.378 423.552 343.863 424.678 344.834C425.805 345.787 426.368 347.209 426.368 349.098C426.368 350.19 426.126 351.187 425.64 352.088C425.172 352.989 424.453 353.7 423.482 354.22C422.529 354.74 421.333 355 419.894 355H414.018ZM417.008 352.114H419.764C420.683 352.114 421.394 351.837 421.896 351.282C422.399 350.71 422.65 349.973 422.65 349.072C422.65 348.136 422.399 347.434 421.896 346.966C421.411 346.498 420.7 346.264 419.764 346.264H417.008V352.114ZM429.228 355C429.055 355 428.908 354.939 428.786 354.818C428.665 354.697 428.604 354.549 428.604 354.376V337.424C428.604 337.251 428.665 337.103 428.786 336.982C428.908 336.861 429.055 336.8 429.228 336.8H431.672C431.863 336.8 432.01 336.861 432.114 336.982C432.236 337.103 432.296 337.251 432.296 337.424V354.376C432.296 354.549 432.236 354.697 432.114 354.818C432.01 354.939 431.863 355 431.672 355H429.228ZM446.617 355C446.444 355 446.296 354.939 446.175 354.818C446.054 354.697 445.993 354.541 445.993 354.35V337.45C445.993 337.259 446.054 337.103 446.175 336.982C446.296 336.861 446.452 336.8 446.643 336.8H448.983C449.174 336.8 449.321 336.861 449.425 336.982C449.546 337.103 449.607 337.259 449.607 337.45V349.384L458.161 337.216C458.23 337.129 458.326 337.043 458.447 336.956C458.568 336.852 458.724 336.8 458.915 336.8H461.073C461.246 336.8 461.394 336.861 461.515 336.982C461.636 337.103 461.697 337.259 461.697 337.45V354.376C461.697 354.549 461.636 354.697 461.515 354.818C461.394 354.939 461.246 355 461.073 355H458.733C458.542 355 458.386 354.939 458.265 354.818C458.144 354.697 458.083 354.549 458.083 354.376V342.676L449.555 354.584C449.503 354.653 449.416 354.74 449.295 354.844C449.174 354.948 449.009 355 448.801 355H446.617ZM453.871 335.76C452.796 335.76 451.938 335.595 451.297 335.266C450.673 334.937 450.222 334.512 449.945 333.992C449.668 333.455 449.529 332.883 449.529 332.276C449.529 332.137 449.572 332.025 449.659 331.938C449.746 331.834 449.867 331.782 450.023 331.782H451.531C451.687 331.782 451.808 331.834 451.895 331.938C451.982 332.025 452.025 332.137 452.025 332.276C452.025 332.519 452.068 332.753 452.155 332.978C452.259 333.203 452.441 333.394 452.701 333.55C452.978 333.689 453.36 333.758 453.845 333.758C454.365 333.758 454.755 333.689 455.015 333.55C455.275 333.394 455.448 333.203 455.535 332.978C455.639 332.753 455.691 332.519 455.691 332.276C455.691 332.137 455.734 332.025 455.821 331.938C455.908 331.834 456.029 331.782 456.185 331.782H457.693C457.849 331.782 457.97 331.834 458.057 331.938C458.144 332.025 458.187 332.137 458.187 332.276C458.187 332.883 458.048 333.455 457.771 333.992C457.494 334.512 457.043 334.937 456.419 335.266C455.795 335.595 454.946 335.76 453.871 335.76ZM499.326 355.832C499.136 355.832 498.98 355.771 498.858 355.65C498.754 355.529 498.702 355.381 498.702 355.208V353.284C496.12 353.284 494.126 352.721 492.722 351.594C491.318 350.45 490.521 348.743 490.33 346.472C490.313 346.316 490.304 346.125 490.304 345.9C490.304 345.657 490.304 345.423 490.304 345.198C490.322 344.955 490.33 344.756 490.33 344.6C490.417 343.092 490.807 341.835 491.5 340.83C492.194 339.807 493.147 339.045 494.36 338.542C495.591 338.022 497.038 337.762 498.702 337.762V336.124C498.702 335.933 498.754 335.786 498.858 335.682C498.98 335.561 499.136 335.5 499.326 335.5H501.666C501.857 335.5 502.013 335.561 502.134 335.682C502.256 335.786 502.316 335.933 502.316 336.124V337.762C503.963 337.762 505.393 338.022 506.606 338.542C507.837 339.045 508.799 339.807 509.492 340.83C510.203 341.835 510.593 343.092 510.662 344.6C510.697 344.964 510.714 345.276 510.714 345.536C510.714 345.796 510.697 346.108 510.662 346.472C510.489 348.743 509.7 350.45 508.296 351.594C506.892 352.721 504.899 353.284 502.316 353.284V355.208C502.316 355.381 502.256 355.529 502.134 355.65C502.013 355.771 501.857 355.832 501.666 355.832H499.326ZM498.702 350.294V340.752C497.298 340.752 496.198 341.064 495.4 341.688C494.603 342.312 494.144 343.317 494.022 344.704C494.022 344.981 494.022 345.25 494.022 345.51C494.022 345.77 494.022 346.047 494.022 346.342C494.109 347.711 494.551 348.717 495.348 349.358C496.163 349.982 497.281 350.294 498.702 350.294ZM502.29 350.294C503.712 350.294 504.83 349.982 505.644 349.358C506.459 348.717 506.901 347.711 506.97 346.342C506.988 346.186 506.996 346.013 506.996 345.822C506.996 345.614 506.996 345.415 506.996 345.224C506.996 345.016 506.988 344.843 506.97 344.704C506.832 343.317 506.364 342.312 505.566 341.688C504.786 341.064 503.694 340.752 502.29 340.752V350.294ZM530.724 355.26C529.181 355.26 527.855 355.009 526.746 354.506C525.637 353.986 524.77 353.197 524.146 352.14C523.522 351.065 523.184 349.731 523.132 348.136C523.115 347.391 523.106 346.654 523.106 345.926C523.106 345.198 523.115 344.453 523.132 343.69C523.184 342.113 523.531 340.795 524.172 339.738C524.813 338.681 525.689 337.883 526.798 337.346C527.925 336.809 529.233 336.54 530.724 336.54C532.215 336.54 533.523 336.809 534.65 337.346C535.777 337.883 536.661 338.681 537.302 339.738C537.943 340.795 538.29 342.113 538.342 343.69C538.377 344.453 538.394 345.198 538.394 345.926C538.394 346.654 538.377 347.391 538.342 348.136C538.29 349.731 537.952 351.065 537.328 352.14C536.704 353.197 535.829 353.986 534.702 354.506C533.593 355.009 532.267 355.26 530.724 355.26ZM530.724 352.27C531.851 352.27 532.769 351.941 533.48 351.282C534.191 350.606 534.572 349.514 534.624 348.006C534.659 347.243 534.676 346.541 534.676 345.9C534.676 345.241 534.659 344.539 534.624 343.794C534.589 342.789 534.399 341.974 534.052 341.35C533.723 340.709 533.272 340.249 532.7 339.972C532.128 339.677 531.469 339.53 530.724 339.53C529.996 339.53 529.346 339.677 528.774 339.972C528.202 340.249 527.743 340.709 527.396 341.35C527.067 341.974 526.885 342.789 526.85 343.794C526.833 344.539 526.824 345.241 526.824 345.9C526.824 346.541 526.833 347.243 526.85 348.006C526.902 349.514 527.283 350.606 527.994 351.282C528.705 351.941 529.615 352.27 530.724 352.27ZM552.052 355C551.879 355 551.731 354.948 551.61 354.844C551.489 354.723 551.428 354.567 551.428 354.376V337.45C551.428 337.259 551.489 337.103 551.61 336.982C551.731 336.861 551.879 336.8 552.052 336.8H554.418C554.609 336.8 554.756 336.861 554.86 336.982C554.981 337.103 555.042 337.259 555.042 337.45V344.158H562.712V337.45C562.712 337.259 562.773 337.103 562.894 336.982C563.015 336.861 563.163 336.8 563.336 336.8H565.676C565.867 336.8 566.023 336.861 566.144 336.982C566.265 337.103 566.326 337.259 566.326 337.45V354.376C566.326 354.549 566.265 354.697 566.144 354.818C566.023 354.939 565.867 355 565.676 355H563.336C563.163 355 563.015 354.939 562.894 354.818C562.773 354.697 562.712 354.549 562.712 354.376V347.408H555.042V354.376C555.042 354.549 554.981 354.697 554.86 354.818C554.756 354.939 554.609 355 554.418 355H552.052ZM579.261 358.614C579.088 358.614 578.941 358.553 578.819 358.432C578.698 358.328 578.637 358.181 578.637 357.99V352.374C578.637 352.201 578.698 352.053 578.819 351.932C578.941 351.811 579.088 351.75 579.261 351.75H579.781C580.197 351.75 580.553 351.559 580.847 351.178C581.142 350.779 581.385 350.207 581.575 349.462C581.766 348.699 581.905 347.763 581.991 346.654C582.078 345.545 582.121 344.279 582.121 342.858V337.424C582.121 337.251 582.182 337.103 582.303 336.982C582.425 336.861 582.581 336.8 582.771 336.8H593.925C594.116 336.8 594.272 336.861 594.393 336.982C594.515 337.103 594.575 337.259 594.575 337.45V351.75H595.823C596.014 351.75 596.17 351.811 596.291 351.932C596.413 352.053 596.473 352.201 596.473 352.374V357.99C596.473 358.181 596.413 358.328 596.291 358.432C596.17 358.553 596.014 358.614 595.823 358.614H593.483C593.293 358.614 593.137 358.553 593.015 358.432C592.911 358.328 592.859 358.181 592.859 357.99V355H582.251V357.99C582.251 358.181 582.191 358.328 582.069 358.432C581.948 358.553 581.792 358.614 581.601 358.614H579.261ZM584.201 351.75H590.961V340.05H585.631V343.326C585.631 345.475 585.51 347.235 585.267 348.604C585.025 349.956 584.669 351.005 584.201 351.75Z" fill="white"/>
<path d="M294.5 213C244.833 214.833 162.4 177.4 230 13C235.007 0.200002 252.05 39.6667 257.5 60.5M294.5 213C346.333 213.833 431.8 175 359 13C354.343 2.2 338.582 41.3333 333.5 60.5M294.5 213C328.065 188.456 355.5 153.5 333.5 60.5M294.5 213C262.509 189.866 234.892 135.5 257.5 60.5M333.5 60.5C324.688 42.0379 317 25 294.5 7C271 28.5 265.907 41.4574 257.5 60.5" stroke="white" stroke-width="10"/>
<path d="M8.8 311C8.21333 311 7.76 310.84 7.44 310.52C7.12 310.147 6.96 309.693 6.96 309.16V256.92C6.96 256.333 7.12 255.88 7.44 255.56C7.76 255.187 8.21333 255 8.8 255H12.88C13.4667 255 13.92 255.187 14.24 255.56C14.6133 255.88 14.8 256.333 14.8 256.92V279H23.84L38.08 256.28C38.3467 255.853 38.6933 255.533 39.12 255.32C39.5467 255.107 40.1067 255 40.8 255H45.12C45.7067 255 46.1333 255.16 46.4 255.48C46.6667 255.8 46.8 256.173 46.8 256.6C46.8 256.92 46.6667 257.267 46.4 257.64L31.04 282.12L47.92 308.2C48.08 308.413 48.16 308.707 48.16 309.08C48.16 309.613 47.9733 310.067 47.6 310.44C47.28 310.813 46.8533 311 46.32 311H41.76C41.1733 311 40.72 310.893 40.4 310.68C40.1333 310.413 39.8933 310.12 39.68 309.8L24.16 286.2H14.8V309.16C14.8 309.693 14.6133 310.147 14.24 310.52C13.92 310.84 13.4667 311 12.88 311H8.8ZM110.372 311C109.945 311 109.572 310.84 109.252 310.52C108.932 310.2 108.772 309.827 108.772 309.4C108.772 309.133 108.799 308.84 108.852 308.52L128.692 256.76C128.905 256.227 129.199 255.8 129.572 255.48C129.945 255.16 130.505 255 131.252 255H136.692C137.385 255 137.919 255.16 138.292 255.48C138.719 255.8 139.039 256.227 139.252 256.76L159.012 308.52C159.119 308.84 159.172 309.133 159.172 309.4C159.172 309.827 159.012 310.2 158.692 310.52C158.372 310.84 157.999 311 157.572 311H153.492C152.852 311 152.372 310.84 152.052 310.52C151.785 310.2 151.599 309.907 151.492 309.64L147.092 298.28H120.852L116.452 309.64C116.399 309.907 116.212 310.2 115.892 310.52C115.572 310.84 115.092 311 114.452 311H110.372ZM123.172 291.4H144.772L133.972 263L123.172 291.4ZM226.286 311C225.752 311 225.299 310.84 224.926 310.52C224.606 310.147 224.446 309.693 224.446 309.16V305.8C224.446 305.213 224.606 304.76 224.926 304.44C225.299 304.067 225.752 303.88 226.286 303.88H229.086C230.792 303.88 232.259 303.48 233.486 302.68C234.712 301.827 235.859 300.52 236.926 298.76C238.046 297 239.192 294.707 240.366 291.88L255.966 256.36C256.126 255.88 256.392 255.533 256.766 255.32C257.139 255.107 257.539 255 257.966 255H262.286C262.712 255 263.086 255.16 263.406 255.48C263.726 255.8 263.886 256.173 263.886 256.6C263.886 256.813 263.859 257.027 263.806 257.24C263.806 257.4 263.752 257.56 263.646 257.72L247.326 294.68C246.046 297.507 244.846 299.96 243.726 302.04C242.606 304.067 241.406 305.747 240.126 307.08C238.846 308.413 237.352 309.4 235.646 310.04C233.939 310.68 231.886 311 229.486 311H226.286ZM239.886 297.4L218.046 257.56C217.886 257.24 217.806 256.947 217.806 256.68C217.806 256.253 217.966 255.88 218.286 255.56C218.659 255.187 219.059 255 219.486 255H223.966C224.446 255 224.846 255.107 225.166 255.32C225.486 255.533 225.752 255.88 225.966 256.36L244.126 289.4L239.886 297.4ZM346.995 311.8C342.088 311.8 338.008 310.893 334.755 309.08C331.555 307.267 329.128 304.733 327.475 301.48C325.822 298.227 324.915 294.44 324.755 290.12C324.702 287.933 324.675 285.587 324.675 283.08C324.675 280.573 324.702 278.173 324.755 275.88C324.915 271.56 325.822 267.773 327.475 264.52C329.128 261.267 331.555 258.733 334.755 256.92C338.008 255.107 342.088 254.2 346.995 254.2C350.675 254.2 353.902 254.707 356.675 255.72C359.448 256.733 361.742 258.093 363.555 259.8C365.422 261.507 366.835 263.427 367.795 265.56C368.755 267.64 369.288 269.8 369.395 272.04C369.448 272.52 369.288 272.92 368.915 273.24C368.595 273.56 368.195 273.72 367.715 273.72H363.315C362.835 273.72 362.408 273.587 362.035 273.32C361.715 273.053 361.475 272.573 361.315 271.88C360.408 267.72 358.702 264.867 356.195 263.32C353.742 261.773 350.648 261 346.915 261C342.648 261 339.262 262.227 336.755 264.68C334.248 267.08 332.888 270.947 332.675 276.28C332.515 280.653 332.515 285.133 332.675 289.72C332.888 295.053 334.248 298.947 336.755 301.4C339.262 303.8 342.648 305 346.915 305C350.648 305 353.742 304.227 356.195 302.68C358.702 301.133 360.408 298.28 361.315 294.12C361.475 293.427 361.715 292.947 362.035 292.68C362.408 292.413 362.835 292.28 363.315 292.28H367.715C368.195 292.28 368.595 292.44 368.915 292.76C369.288 293.08 369.448 293.48 369.395 293.96C369.288 296.2 368.755 298.387 367.795 300.52C366.835 302.6 365.422 304.493 363.555 306.2C361.742 307.907 359.448 309.267 356.675 310.28C353.902 311.293 350.675 311.8 346.995 311.8ZM432.356 311C431.93 311 431.556 310.84 431.236 310.52C430.916 310.2 430.756 309.827 430.756 309.4C430.756 309.133 430.783 308.84 430.836 308.52L450.676 256.76C450.89 256.227 451.183 255.8 451.556 255.48C451.93 255.16 452.49 255 453.236 255H458.676C459.37 255 459.903 255.16 460.276 255.48C460.703 255.8 461.023 256.227 461.236 256.76L480.996 308.52C481.103 308.84 481.156 309.133 481.156 309.4C481.156 309.827 480.996 310.2 480.676 310.52C480.356 310.84 479.983 311 479.556 311H475.476C474.836 311 474.356 310.84 474.036 310.52C473.77 310.2 473.583 309.907 473.476 309.64L469.076 298.28H442.836L438.436 309.64C438.383 309.907 438.196 310.2 437.876 310.52C437.556 310.84 437.076 311 436.436 311H432.356ZM445.156 291.4H466.756L455.956 263L445.156 291.4ZM547.55 311C546.963 311 546.51 310.84 546.19 310.52C545.87 310.147 545.71 309.693 545.71 309.16V256.92C545.71 256.333 545.87 255.88 546.19 255.56C546.51 255.187 546.963 255 547.55 255H567.87C571.817 255 575.23 255.64 578.11 256.92C581.043 258.2 583.31 260.12 584.91 262.68C586.51 265.187 587.31 268.333 587.31 272.12C587.31 275.907 586.51 279.053 584.91 281.56C583.31 284.067 581.043 285.96 578.11 287.24C575.23 288.52 571.817 289.16 567.87 289.16H553.71V309.16C553.71 309.693 553.523 310.147 553.15 310.52C552.83 310.84 552.377 311 551.79 311H547.55ZM553.63 282.44H567.47C571.417 282.44 574.377 281.56 576.35 279.8C578.323 278.04 579.31 275.48 579.31 272.12C579.31 268.813 578.35 266.253 576.43 264.44C574.51 262.627 571.523 261.72 567.47 261.72H553.63V282.44Z" fill="white"/>
</svg>
