<svg width="194" height="219" viewBox="0 0 194 219" fill="none" xmlns="http://www.w3.org/2000/svg">
<path d="M96.0418 213C46.3752 214.833 -36.0582 177.4 31.5418 13C36.5492 0.200002 53.5923 39.6667 59.0418 60.5C67.4488 41.4574 72.5418 28.5 96.0418 7C118.542 25 126.23 42.0379 135.042 60.5C140.124 41.3333 155.885 2.2 160.542 13C233.342 175 147.875 213.833 96.0418 213Z" fill="#F06EBC"/>
<path d="M96.0418 213C46.3752 214.833 -36.0582 177.4 31.5418 13C36.5492 0.200002 53.5923 39.6667 59.0418 60.5M96.0418 213C147.875 213.833 233.342 175 160.542 13C155.885 2.2 140.124 41.3333 135.042 60.5M96.0418 213C129.607 188.456 157.042 153.5 135.042 60.5M96.0418 213C64.0505 189.866 36.4339 135.5 59.0418 60.5M135.042 60.5C126.23 42.0379 118.542 25 96.0418 7C72.5418 28.5 67.4488 41.4574 59.0418 60.5" stroke="white" stroke-width="10"/>
</svg>
