<svg width="451" height="331" viewBox="0 0 451 331" fill="none" xmlns="http://www.w3.org/2000/svg">
<path d="M222.5 213C172.833 214.833 90.4 177.4 158 13C163.007 0.200002 180.05 39.6667 185.5 60.5M222.5 213C274.333 213.833 359.8 175 287 13C282.343 2.2 266.582 41.3333 261.5 60.5M222.5 213C256.065 188.456 283.5 153.5 261.5 60.5M222.5 213C190.509 189.866 162.892 135.5 185.5 60.5M261.5 60.5C252.688 42.0379 245 25 222.5 7C199 28.5 193.907 41.4574 185.5 60.5" stroke="white" stroke-width="10"/>
<path d="M8.8 310.5C8.21333 310.5 7.76 310.34 7.44 310.02C7.12 309.647 6.96 309.193 6.96 308.66V256.42C6.96 255.833 7.12 255.38 7.44 255.06C7.76 254.687 8.21333 254.5 8.8 254.5H12.88C13.4667 254.5 13.92 254.687 14.24 255.06C14.6133 255.38 14.8 255.833 14.8 256.42V278.5H23.84L38.08 255.78C38.3467 255.353 38.6933 255.033 39.12 254.82C39.5467 254.607 40.1067 254.5 40.8 254.5H45.12C45.7067 254.5 46.1333 254.66 46.4 254.98C46.6667 255.3 46.8 255.673 46.8 256.1C46.8 256.42 46.6667 256.767 46.4 257.14L31.04 281.62L47.92 307.7C48.08 307.913 48.16 308.207 48.16 308.58C48.16 309.113 47.9733 309.567 47.6 309.94C47.28 310.313 46.8533 310.5 46.32 310.5H41.76C41.1733 310.5 40.72 310.393 40.4 310.18C40.1333 309.913 39.8933 309.62 39.68 309.3L24.16 285.7H14.8V308.66C14.8 309.193 14.6133 309.647 14.24 310.02C13.92 310.34 13.4667 310.5 12.88 310.5H8.8ZM82.3719 310.5C81.9452 310.5 81.5719 310.34 81.2519 310.02C80.9319 309.7 80.7719 309.327 80.7719 308.9C80.7719 308.633 80.7985 308.34 80.8519 308.02L100.692 256.26C100.905 255.727 101.199 255.3 101.572 254.98C101.945 254.66 102.505 254.5 103.252 254.5H108.692C109.385 254.5 109.919 254.66 110.292 254.98C110.719 255.3 111.039 255.727 111.252 256.26L131.012 308.02C131.119 308.34 131.172 308.633 131.172 308.9C131.172 309.327 131.012 309.7 130.692 310.02C130.372 310.34 129.999 310.5 129.572 310.5H125.492C124.852 310.5 124.372 310.34 124.052 310.02C123.785 309.7 123.599 309.407 123.492 309.14L119.092 297.78H92.8519L88.4519 309.14C88.3985 309.407 88.2119 309.7 87.8919 310.02C87.5719 310.34 87.0919 310.5 86.4519 310.5H82.3719ZM95.1719 290.9H116.772L105.972 262.5L95.1719 290.9ZM170.286 310.5C169.752 310.5 169.299 310.34 168.926 310.02C168.606 309.647 168.446 309.193 168.446 308.66V305.3C168.446 304.713 168.606 304.26 168.926 303.94C169.299 303.567 169.752 303.38 170.286 303.38H173.086C174.792 303.38 176.259 302.98 177.486 302.18C178.712 301.327 179.859 300.02 180.926 298.26C182.046 296.5 183.192 294.207 184.366 291.38L199.966 255.86C200.126 255.38 200.392 255.033 200.766 254.82C201.139 254.607 201.539 254.5 201.966 254.5H206.286C206.712 254.5 207.086 254.66 207.406 254.98C207.726 255.3 207.886 255.673 207.886 256.1C207.886 256.313 207.859 256.527 207.806 256.74C207.806 256.9 207.752 257.06 207.646 257.22L191.326 294.18C190.046 297.007 188.846 299.46 187.726 301.54C186.606 303.567 185.406 305.247 184.126 306.58C182.846 307.913 181.352 308.9 179.646 309.54C177.939 310.18 175.886 310.5 173.486 310.5H170.286ZM183.886 296.9L162.046 257.06C161.886 256.74 161.806 256.447 161.806 256.18C161.806 255.753 161.966 255.38 162.286 255.06C162.659 254.687 163.059 254.5 163.486 254.5H167.966C168.446 254.5 168.846 254.607 169.166 254.82C169.486 255.033 169.752 255.38 169.966 255.86L188.126 288.9L183.886 296.9ZM262.995 311.3C258.088 311.3 254.008 310.393 250.755 308.58C247.555 306.767 245.128 304.233 243.475 300.98C241.822 297.727 240.915 293.94 240.755 289.62C240.702 287.433 240.675 285.087 240.675 282.58C240.675 280.073 240.702 277.673 240.755 275.38C240.915 271.06 241.822 267.273 243.475 264.02C245.128 260.767 247.555 258.233 250.755 256.42C254.008 254.607 258.088 253.7 262.995 253.7C266.675 253.7 269.902 254.207 272.675 255.22C275.448 256.233 277.742 257.593 279.555 259.3C281.422 261.007 282.835 262.927 283.795 265.06C284.755 267.14 285.288 269.3 285.395 271.54C285.448 272.02 285.288 272.42 284.915 272.74C284.595 273.06 284.195 273.22 283.715 273.22H279.315C278.835 273.22 278.408 273.087 278.035 272.82C277.715 272.553 277.475 272.073 277.315 271.38C276.408 267.22 274.702 264.367 272.195 262.82C269.742 261.273 266.648 260.5 262.915 260.5C258.648 260.5 255.262 261.727 252.755 264.18C250.248 266.58 248.888 270.447 248.675 275.78C248.515 280.153 248.515 284.633 248.675 289.22C248.888 294.553 250.248 298.447 252.755 300.9C255.262 303.3 258.648 304.5 262.915 304.5C266.648 304.5 269.742 303.727 272.195 302.18C274.702 300.633 276.408 297.78 277.315 293.62C277.475 292.927 277.715 292.447 278.035 292.18C278.408 291.913 278.835 291.78 279.315 291.78H283.715C284.195 291.78 284.595 291.94 284.915 292.26C285.288 292.58 285.448 292.98 285.395 293.46C285.288 295.7 284.755 297.887 283.795 300.02C282.835 302.1 281.422 303.993 279.555 305.7C277.742 307.407 275.448 308.767 272.675 309.78C269.902 310.793 266.675 311.3 262.995 311.3ZM320.356 310.5C319.93 310.5 319.556 310.34 319.236 310.02C318.916 309.7 318.756 309.327 318.756 308.9C318.756 308.633 318.783 308.34 318.836 308.02L338.676 256.26C338.89 255.727 339.183 255.3 339.556 254.98C339.93 254.66 340.49 254.5 341.236 254.5H346.676C347.37 254.5 347.903 254.66 348.276 254.98C348.703 255.3 349.023 255.727 349.236 256.26L368.996 308.02C369.103 308.34 369.156 308.633 369.156 308.9C369.156 309.327 368.996 309.7 368.676 310.02C368.356 310.34 367.983 310.5 367.556 310.5H363.476C362.836 310.5 362.356 310.34 362.036 310.02C361.77 309.7 361.583 309.407 361.476 309.14L357.076 297.78H330.836L326.436 309.14C326.383 309.407 326.196 309.7 325.876 310.02C325.556 310.34 325.076 310.5 324.436 310.5H320.356ZM333.156 290.9H354.756L343.956 262.5L333.156 290.9ZM407.55 310.5C406.963 310.5 406.51 310.34 406.19 310.02C405.87 309.647 405.71 309.193 405.71 308.66V256.42C405.71 255.833 405.87 255.38 406.19 255.06C406.51 254.687 406.963 254.5 407.55 254.5H427.87C431.817 254.5 435.23 255.14 438.11 256.42C441.043 257.7 443.31 259.62 444.91 262.18C446.51 264.687 447.31 267.833 447.31 271.62C447.31 275.407 446.51 278.553 444.91 281.06C443.31 283.567 441.043 285.46 438.11 286.74C435.23 288.02 431.817 288.66 427.87 288.66H413.71V308.66C413.71 309.193 413.523 309.647 413.15 310.02C412.83 310.34 412.377 310.5 411.79 310.5H407.55ZM413.63 281.94H427.47C431.417 281.94 434.377 281.06 436.35 279.3C438.323 277.54 439.31 274.98 439.31 271.62C439.31 268.313 438.35 265.753 436.43 263.94C434.51 262.127 431.523 261.22 427.47 261.22H413.63V281.94Z" fill="white"/>
</svg>
