<svg width="591" height="362" viewBox="0 0 591 362" fill="none" xmlns="http://www.w3.org/2000/svg">
<path d="M8.86 355C8.66933 355 8.522 354.948 8.418 354.844C8.314 354.723 8.262 354.575 8.262 354.402V337.424C8.262 337.233 8.314 337.086 8.418 336.982C8.522 336.861 8.66933 336.8 8.86 336.8H20.17C20.3607 336.8 20.508 336.861 20.612 336.982C20.716 337.086 20.768 337.233 20.768 337.424V338.464C20.768 338.637 20.716 338.785 20.612 338.906C20.508 339.01 20.3607 339.062 20.17 339.062H10.81V344.314H15.958C17.7953 344.314 19.2253 344.791 20.248 345.744C21.2707 346.697 21.782 347.98 21.782 349.592C21.782 350.233 21.6607 350.875 21.418 351.516C21.1753 352.157 20.8113 352.738 20.326 353.258C19.858 353.778 19.26 354.203 18.532 354.532C17.804 354.844 16.946 355 15.958 355H8.86ZM10.81 352.894H15.646C16.4087 352.894 17.05 352.747 17.57 352.452C18.09 352.14 18.4887 351.724 18.766 351.204C19.0433 350.684 19.182 350.121 19.182 349.514C19.182 348.595 18.8873 347.85 18.298 347.278C17.726 346.689 16.842 346.394 15.646 346.394H10.81V352.894ZM46.3435 355C46.1701 355 46.0228 354.948 45.9015 354.844C45.7975 354.723 45.7455 354.575 45.7455 354.402V339.14H39.2975V343.326C39.2975 345.406 39.1848 347.183 38.9595 348.656C38.7341 350.112 38.3875 351.299 37.9195 352.218C37.4515 353.119 36.8448 353.795 36.0995 354.246C35.3715 354.679 34.4875 354.922 33.4475 354.974C33.2741 354.991 33.1268 354.939 33.0055 354.818C32.8841 354.697 32.8235 354.541 32.8235 354.35V353.206C32.8235 352.859 33.0055 352.66 33.3695 352.608C33.9068 352.521 34.3835 352.287 34.7995 351.906C35.2328 351.525 35.5968 350.961 35.8915 350.216C36.1861 349.453 36.4115 348.483 36.5675 347.304C36.7235 346.108 36.8015 344.678 36.8015 343.014V337.398C36.8015 337.225 36.8535 337.086 36.9575 336.982C37.0788 336.861 37.2261 336.8 37.3995 336.8H47.6695C47.8601 336.8 48.0075 336.861 48.1115 336.982C48.2328 337.086 48.2935 337.233 48.2935 337.424V354.402C48.2935 354.575 48.2328 354.723 48.1115 354.844C48.0075 354.948 47.8601 355 47.6695 355H46.3435ZM61.2175 355C61.0788 355 60.9575 354.948 60.8535 354.844C60.7495 354.74 60.6975 354.619 60.6975 354.48C60.6975 354.393 60.7062 354.298 60.7235 354.194L67.1715 337.372C67.2408 337.199 67.3362 337.06 67.4575 336.956C67.5788 336.852 67.7608 336.8 68.0035 336.8H69.7715C69.9968 336.8 70.1702 336.852 70.2915 336.956C70.4302 337.06 70.5342 337.199 70.6035 337.372L77.0255 354.194C77.0602 354.298 77.0775 354.393 77.0775 354.48C77.0775 354.619 77.0255 354.74 76.9215 354.844C76.8175 354.948 76.6962 355 76.5575 355H75.2315C75.0235 355 74.8675 354.948 74.7635 354.844C74.6768 354.74 74.6162 354.645 74.5815 354.558L73.1515 350.866H64.6235L63.1935 354.558C63.1762 354.645 63.1155 354.74 63.0115 354.844C62.9075 354.948 62.7515 355 62.5435 355H61.2175ZM65.3775 348.63H72.3975L68.8875 339.4L65.3775 348.63ZM90.0755 355C89.8848 355 89.7375 354.948 89.6335 354.844C89.5295 354.723 89.4775 354.575 89.4775 354.402V337.424C89.4775 337.233 89.5295 337.086 89.6335 336.982C89.7375 336.861 89.8848 336.8 90.0755 336.8H100.085C100.276 336.8 100.423 336.861 100.527 336.982C100.649 337.086 100.709 337.233 100.709 337.424V338.464C100.709 338.637 100.649 338.785 100.527 338.906C100.423 339.01 100.276 339.062 100.085 339.062H92.0255V354.402C92.0255 354.575 91.9648 354.723 91.8435 354.844C91.7395 354.948 91.5921 355 91.4015 355H90.0755ZM119.233 355.26C117.76 355.26 116.494 355.009 115.437 354.506C114.38 353.986 113.565 353.197 112.993 352.14C112.421 351.065 112.1 349.722 112.031 348.11C112.014 347.347 112.005 346.619 112.005 345.926C112.005 345.215 112.014 344.479 112.031 343.716C112.1 342.121 112.43 340.795 113.019 339.738C113.626 338.663 114.458 337.866 115.515 337.346C116.59 336.809 117.829 336.54 119.233 336.54C120.654 336.54 121.894 336.809 122.951 337.346C124.026 337.866 124.866 338.663 125.473 339.738C126.08 340.795 126.409 342.121 126.461 343.716C126.496 344.479 126.513 345.215 126.513 345.926C126.513 346.619 126.496 347.347 126.461 348.11C126.409 349.722 126.088 351.065 125.499 352.14C124.927 353.197 124.112 353.986 123.055 354.506C121.998 355.009 120.724 355.26 119.233 355.26ZM119.233 353.05C120.568 353.05 121.651 352.651 122.483 351.854C123.332 351.057 123.792 349.765 123.861 347.98C123.896 347.2 123.913 346.507 123.913 345.9C123.913 345.276 123.896 344.583 123.861 343.82C123.826 342.624 123.601 341.653 123.185 340.908C122.786 340.163 122.249 339.617 121.573 339.27C120.897 338.923 120.117 338.75 119.233 338.75C118.384 338.75 117.621 338.923 116.945 339.27C116.269 339.617 115.723 340.163 115.307 340.908C114.908 341.653 114.683 342.624 114.631 343.82C114.614 344.583 114.605 345.276 114.605 345.9C114.605 346.507 114.614 347.2 114.631 347.98C114.7 349.765 115.16 351.057 116.009 351.854C116.858 352.651 117.933 353.05 119.233 353.05ZM144.499 355C144.325 355 144.178 354.948 144.057 354.844C143.953 354.723 143.901 354.575 143.901 354.402V339.114H138.909C138.735 339.114 138.588 339.062 138.467 338.958C138.363 338.837 138.311 338.689 138.311 338.516V337.424C138.311 337.233 138.363 337.086 138.467 336.982C138.588 336.861 138.735 336.8 138.909 336.8H151.441C151.631 336.8 151.779 336.861 151.883 336.982C152.004 337.086 152.065 337.233 152.065 337.424V338.516C152.065 338.689 152.004 338.837 151.883 338.958C151.779 339.062 151.631 339.114 151.441 339.114H146.475V354.402C146.475 354.575 146.414 354.723 146.293 354.844C146.189 354.948 146.041 355 145.851 355H144.499ZM165.197 355C165.007 355 164.859 354.948 164.755 354.844C164.651 354.723 164.599 354.575 164.599 354.402V337.424C164.599 337.233 164.651 337.086 164.755 336.982C164.859 336.861 165.007 336.8 165.197 336.8H172.321C173.621 336.8 174.679 337.017 175.493 337.45C176.325 337.866 176.932 338.438 177.313 339.166C177.712 339.894 177.911 340.709 177.911 341.61C177.911 342.321 177.79 342.936 177.547 343.456C177.322 343.959 177.036 344.375 176.689 344.704C176.343 345.016 176.005 345.259 175.675 345.432C176.351 345.761 176.949 346.299 177.469 347.044C178.007 347.789 178.275 348.691 178.275 349.748C178.275 350.701 178.059 351.577 177.625 352.374C177.192 353.171 176.542 353.813 175.675 354.298C174.826 354.766 173.769 355 172.503 355H165.197ZM167.147 352.894H172.165C173.292 352.894 174.159 352.591 174.765 351.984C175.372 351.377 175.675 350.632 175.675 349.748C175.675 348.829 175.372 348.075 174.765 347.486C174.159 346.879 173.292 346.576 172.165 346.576H167.147V352.894ZM167.147 344.496H171.931C173.041 344.496 173.881 344.245 174.453 343.742C175.025 343.222 175.311 342.52 175.311 341.636C175.311 340.752 175.025 340.076 174.453 339.608C173.881 339.14 173.041 338.906 171.931 338.906H167.147V344.496ZM198.112 355.26C196.639 355.26 195.374 355.009 194.316 354.506C193.259 353.986 192.444 353.197 191.872 352.14C191.3 351.065 190.98 349.722 190.91 348.11C190.893 347.347 190.884 346.619 190.884 345.926C190.884 345.215 190.893 344.479 190.91 343.716C190.98 342.121 191.309 340.795 191.898 339.738C192.505 338.663 193.337 337.866 194.394 337.346C195.469 336.809 196.708 336.54 198.112 336.54C199.534 336.54 200.773 336.809 201.83 337.346C202.905 337.866 203.746 338.663 204.352 339.738C204.959 340.795 205.288 342.121 205.34 343.716C205.375 344.479 205.392 345.215 205.392 345.926C205.392 346.619 205.375 347.347 205.34 348.11C205.288 349.722 204.968 351.065 204.378 352.14C203.806 353.197 202.992 353.986 201.934 354.506C200.877 355.009 199.603 355.26 198.112 355.26ZM198.112 353.05C199.447 353.05 200.53 352.651 201.362 351.854C202.212 351.057 202.671 349.765 202.74 347.98C202.775 347.2 202.792 346.507 202.792 345.9C202.792 345.276 202.775 344.583 202.74 343.82C202.706 342.624 202.48 341.653 202.064 340.908C201.666 340.163 201.128 339.617 200.452 339.27C199.776 338.923 198.996 338.75 198.112 338.75C197.263 338.75 196.5 338.923 195.824 339.27C195.148 339.617 194.602 340.163 194.186 340.908C193.788 341.653 193.562 342.624 193.51 343.82C193.493 344.583 193.484 345.276 193.484 345.9C193.484 346.507 193.493 347.2 193.51 347.98C193.58 349.765 194.039 351.057 194.888 351.854C195.738 352.651 196.812 353.05 198.112 353.05ZM219.4 355C219.209 355 219.062 354.948 218.958 354.844C218.854 354.723 218.802 354.575 218.802 354.402V337.424C218.802 337.233 218.854 337.086 218.958 336.982C219.062 336.861 219.209 336.8 219.4 336.8H226.004C227.287 336.8 228.396 337.008 229.332 337.424C230.285 337.84 231.022 338.464 231.542 339.296C232.062 340.111 232.322 341.133 232.322 342.364C232.322 343.595 232.062 344.617 231.542 345.432C231.022 346.247 230.285 346.862 229.332 347.278C228.396 347.694 227.287 347.902 226.004 347.902H221.402V354.402C221.402 354.575 221.341 354.723 221.22 354.844C221.116 354.948 220.969 355 220.778 355H219.4ZM221.376 345.718H225.874C227.157 345.718 228.119 345.432 228.76 344.86C229.401 344.288 229.722 343.456 229.722 342.364C229.722 341.289 229.41 340.457 228.786 339.868C228.162 339.279 227.191 338.984 225.874 338.984H221.376V345.718ZM245.702 355C245.511 355 245.364 354.939 245.26 354.818C245.156 354.697 245.104 354.549 245.104 354.376V337.424C245.104 337.233 245.156 337.086 245.26 336.982C245.381 336.861 245.528 336.8 245.702 336.8H247.054C247.227 336.8 247.366 336.861 247.47 336.982C247.591 337.086 247.652 337.233 247.652 337.424V350.866L257.35 337.164C257.402 337.095 257.471 337.017 257.558 336.93C257.662 336.843 257.809 336.8 258 336.8H259.274C259.447 336.8 259.586 336.861 259.69 336.982C259.811 337.086 259.872 337.233 259.872 337.424V354.402C259.872 354.575 259.811 354.723 259.69 354.844C259.586 354.948 259.447 355 259.274 355H257.948C257.774 355 257.627 354.948 257.506 354.844C257.384 354.723 257.324 354.575 257.324 354.402V341.064L247.652 354.636C247.617 354.688 247.548 354.766 247.444 354.87C247.34 354.957 247.192 355 247.002 355H245.702ZM278.597 355C278.423 355 278.276 354.948 278.155 354.844C278.051 354.723 277.999 354.575 277.999 354.402V339.114H273.007C272.833 339.114 272.686 339.062 272.565 338.958C272.461 338.837 272.409 338.689 272.409 338.516V337.424C272.409 337.233 272.461 337.086 272.565 336.982C272.686 336.861 272.833 336.8 273.007 336.8H285.539C285.729 336.8 285.877 336.861 285.981 336.982C286.102 337.086 286.163 337.233 286.163 337.424V338.516C286.163 338.689 286.102 338.837 285.981 338.958C285.877 339.062 285.729 339.114 285.539 339.114H280.573V354.402C280.573 354.575 280.512 354.723 280.391 354.844C280.287 354.948 280.139 355 279.949 355H278.597ZM299.295 355C299.105 355 298.957 354.948 298.853 354.844C298.749 354.723 298.697 354.575 298.697 354.402V337.424C298.697 337.233 298.749 337.086 298.853 336.982C298.957 336.861 299.105 336.8 299.295 336.8H310.033C310.224 336.8 310.371 336.861 310.475 336.982C310.579 337.086 310.631 337.233 310.631 337.424V338.412C310.631 338.603 310.579 338.75 310.475 338.854C310.371 338.958 310.224 339.01 310.033 339.01H301.193V344.704H309.461C309.652 344.704 309.799 344.765 309.903 344.886C310.007 344.99 310.059 345.137 310.059 345.328V346.29C310.059 346.463 310.007 346.611 309.903 346.732C309.799 346.836 309.652 346.888 309.461 346.888H301.193V352.79H310.241C310.432 352.79 310.579 352.842 310.683 352.946C310.787 353.05 310.839 353.197 310.839 353.388V354.402C310.839 354.575 310.787 354.723 310.683 354.844C310.579 354.948 310.432 355 310.241 355H299.295ZM335.941 355C335.767 355 335.62 354.948 335.499 354.844C335.395 354.723 335.343 354.575 335.343 354.402V339.14H328.895V343.326C328.895 345.406 328.782 347.183 328.557 348.656C328.331 350.112 327.985 351.299 327.517 352.218C327.049 353.119 326.442 353.795 325.697 354.246C324.969 354.679 324.085 354.922 323.045 354.974C322.871 354.991 322.724 354.939 322.603 354.818C322.481 354.697 322.421 354.541 322.421 354.35V353.206C322.421 352.859 322.603 352.66 322.967 352.608C323.504 352.521 323.981 352.287 324.397 351.906C324.83 351.525 325.194 350.961 325.489 350.216C325.783 349.453 326.009 348.483 326.165 347.304C326.321 346.108 326.399 344.678 326.399 343.014V337.398C326.399 337.225 326.451 337.086 326.555 336.982C326.676 336.861 326.823 336.8 326.997 336.8H337.267C337.457 336.8 337.605 336.861 337.709 336.982C337.83 337.086 337.891 337.233 337.891 337.424V354.402C337.891 354.575 337.83 354.723 337.709 354.844C337.605 354.948 337.457 355 337.267 355H335.941ZM352.635 355C352.444 355 352.297 354.948 352.193 354.844C352.089 354.723 352.037 354.575 352.037 354.402V337.398C352.037 337.225 352.089 337.086 352.193 336.982C352.297 336.861 352.444 336.8 352.635 336.8H353.961C354.152 336.8 354.299 336.861 354.403 336.982C354.524 337.086 354.585 337.225 354.585 337.398V343.716H358.537C360.444 343.716 361.908 344.193 362.931 345.146C363.954 346.082 364.465 347.46 364.465 349.28C364.465 350.268 364.248 351.204 363.815 352.088C363.399 352.955 362.749 353.657 361.865 354.194C360.998 354.731 359.889 355 358.537 355H352.635ZM354.585 352.816H358.329C359.456 352.816 360.331 352.487 360.955 351.828C361.579 351.169 361.891 350.303 361.891 349.228C361.891 348.119 361.596 347.287 361.007 346.732C360.418 346.16 359.525 345.874 358.329 345.874H354.585V352.816ZM377.921 355C377.73 355 377.583 354.948 377.479 354.844C377.375 354.723 377.323 354.575 377.323 354.402V337.424C377.323 337.233 377.375 337.086 377.479 336.982C377.583 336.861 377.73 336.8 377.921 336.8H379.247C379.438 336.8 379.585 336.861 379.689 336.982C379.81 337.086 379.871 337.233 379.871 337.424V344.6H388.815V337.424C388.815 337.233 388.867 337.086 388.971 336.982C389.092 336.861 389.24 336.8 389.413 336.8H390.739C390.93 336.8 391.077 336.861 391.181 336.982C391.302 337.086 391.363 337.233 391.363 337.424V354.402C391.363 354.575 391.302 354.723 391.181 354.844C391.077 354.948 390.93 355 390.739 355H389.413C389.24 355 389.092 354.948 388.971 354.844C388.867 354.723 388.815 354.575 388.815 354.402V346.94H379.871V354.402C379.871 354.575 379.81 354.723 379.689 354.844C379.585 354.948 379.438 355 379.247 355H377.921ZM406.076 355C405.885 355 405.738 354.948 405.634 354.844C405.53 354.723 405.478 354.575 405.478 354.402V337.398C405.478 337.225 405.53 337.086 405.634 336.982C405.738 336.861 405.885 336.8 406.076 336.8H407.402C407.593 336.8 407.74 336.861 407.844 336.982C407.965 337.086 408.026 337.225 408.026 337.398V343.716H411.354C413.243 343.716 414.699 344.193 415.722 345.146C416.762 346.082 417.282 347.46 417.282 349.28C417.282 350.268 417.065 351.204 416.632 352.088C416.216 352.955 415.566 353.657 414.682 354.194C413.798 354.731 412.689 355 411.354 355H406.076ZM408.026 352.816H411.146C412.273 352.816 413.139 352.487 413.746 351.828C414.37 351.169 414.682 350.303 414.682 349.228C414.682 348.119 414.387 347.287 413.798 346.732C413.209 346.16 412.325 345.874 411.146 345.874H408.026V352.816ZM420.376 355C420.185 355 420.038 354.948 419.934 354.844C419.83 354.723 419.778 354.575 419.778 354.402V337.398C419.778 337.225 419.83 337.086 419.934 336.982C420.038 336.861 420.185 336.8 420.376 336.8H421.754C421.927 336.8 422.066 336.861 422.17 336.982C422.291 337.086 422.352 337.225 422.352 337.398V354.402C422.352 354.575 422.291 354.723 422.17 354.844C422.066 354.948 421.927 355 421.754 355H420.376ZM437.1 355C436.91 355 436.762 354.939 436.658 354.818C436.554 354.697 436.502 354.549 436.502 354.376V337.424C436.502 337.233 436.554 337.086 436.658 336.982C436.78 336.861 436.927 336.8 437.1 336.8H438.452C438.626 336.8 438.764 336.861 438.868 336.982C438.99 337.086 439.05 337.233 439.05 337.424V350.866L448.748 337.164C448.8 337.095 448.87 337.017 448.956 336.93C449.06 336.843 449.208 336.8 449.398 336.8H450.672C450.846 336.8 450.984 336.861 451.088 336.982C451.21 337.086 451.27 337.233 451.27 337.424V354.402C451.27 354.575 451.21 354.723 451.088 354.844C450.984 354.948 450.846 355 450.672 355H449.346C449.173 355 449.026 354.948 448.904 354.844C448.783 354.723 448.722 354.575 448.722 354.402V341.064L439.05 354.636C439.016 354.688 438.946 354.766 438.842 354.87C438.738 354.957 438.591 355 438.4 355H437.1ZM443.808 335.76C442.768 335.76 441.954 335.604 441.364 335.292C440.792 334.98 440.385 334.581 440.142 334.096C439.9 333.593 439.778 333.073 439.778 332.536C439.778 332.397 439.822 332.285 439.908 332.198C439.995 332.094 440.116 332.042 440.272 332.042H441.182C441.338 332.042 441.46 332.094 441.546 332.198C441.633 332.285 441.676 332.397 441.676 332.536C441.676 332.796 441.728 333.047 441.832 333.29C441.954 333.533 442.17 333.741 442.482 333.914C442.794 334.07 443.236 334.148 443.808 334.148C444.398 334.148 444.84 334.07 445.134 333.914C445.446 333.741 445.654 333.533 445.758 333.29C445.88 333.047 445.94 332.796 445.94 332.536C445.94 332.397 445.984 332.285 446.07 332.198C446.157 332.094 446.278 332.042 446.434 332.042H447.344C447.5 332.042 447.622 332.094 447.708 332.198C447.795 332.285 447.838 332.397 447.838 332.536C447.838 333.073 447.717 333.593 447.474 334.096C447.232 334.581 446.816 334.98 446.226 335.292C445.654 335.604 444.848 335.76 443.808 335.76ZM489.602 355.832C489.429 355.832 489.282 355.771 489.16 355.65C489.056 355.546 489.004 355.407 489.004 355.234V353.18C486.439 353.18 484.472 352.625 483.102 351.516C481.75 350.389 480.962 348.699 480.736 346.446C480.736 346.255 480.728 346.056 480.71 345.848C480.71 345.64 480.71 345.432 480.71 345.224C480.728 345.016 480.736 344.817 480.736 344.626C480.823 343.118 481.204 341.87 481.88 340.882C482.574 339.877 483.527 339.131 484.74 338.646C485.954 338.143 487.375 337.892 489.004 337.892V336.098C489.004 335.925 489.056 335.786 489.16 335.682C489.282 335.561 489.429 335.5 489.602 335.5H490.954C491.128 335.5 491.266 335.561 491.37 335.682C491.492 335.786 491.552 335.925 491.552 336.098V337.892C493.182 337.892 494.603 338.143 495.816 338.646C497.03 339.131 497.983 339.877 498.676 340.882C499.37 341.87 499.751 343.118 499.82 344.626C499.838 344.955 499.846 345.259 499.846 345.536C499.864 345.796 499.855 346.099 499.82 346.446C499.612 348.699 498.824 350.389 497.454 351.516C496.102 352.625 494.135 353.18 491.552 353.18V355.234C491.552 355.407 491.492 355.546 491.37 355.65C491.266 355.771 491.128 355.832 490.954 355.832H489.602ZM489.004 350.944V340.102C487.306 340.102 485.971 340.466 485 341.194C484.047 341.922 483.492 343.109 483.336 344.756C483.319 345.033 483.31 345.293 483.31 345.536C483.31 345.761 483.319 346.021 483.336 346.316C483.423 347.945 483.96 349.124 484.948 349.852C485.936 350.58 487.288 350.944 489.004 350.944ZM491.552 350.944C493.268 350.944 494.62 350.58 495.608 349.852C496.596 349.124 497.134 347.945 497.22 346.316C497.238 346.143 497.246 345.969 497.246 345.796C497.246 345.623 497.246 345.449 497.246 345.276C497.246 345.085 497.238 344.912 497.22 344.756C497.047 343.109 496.484 341.922 495.53 341.194C494.577 340.466 493.251 340.102 491.552 340.102V350.944ZM519.826 355.26C518.352 355.26 517.087 355.009 516.03 354.506C514.972 353.986 514.158 353.197 513.586 352.14C513.014 351.065 512.693 349.722 512.624 348.11C512.606 347.347 512.598 346.619 512.598 345.926C512.598 345.215 512.606 344.479 512.624 343.716C512.693 342.121 513.022 340.795 513.612 339.738C514.218 338.663 515.05 337.866 516.108 337.346C517.182 336.809 518.422 336.54 519.826 336.54C521.247 336.54 522.486 336.809 523.544 337.346C524.618 337.866 525.459 338.663 526.066 339.738C526.672 340.795 527.002 342.121 527.054 343.716C527.088 344.479 527.106 345.215 527.106 345.926C527.106 346.619 527.088 347.347 527.054 348.11C527.002 349.722 526.681 351.065 526.092 352.14C525.52 353.197 524.705 353.986 523.648 354.506C522.59 355.009 521.316 355.26 519.826 355.26ZM519.826 353.05C521.16 353.05 522.244 352.651 523.076 351.854C523.925 351.057 524.384 349.765 524.454 347.98C524.488 347.2 524.506 346.507 524.506 345.9C524.506 345.276 524.488 344.583 524.454 343.82C524.419 342.624 524.194 341.653 523.778 340.908C523.379 340.163 522.842 339.617 522.166 339.27C521.49 338.923 520.71 338.75 519.826 338.75C518.976 338.75 518.214 338.923 517.538 339.27C516.862 339.617 516.316 340.163 515.9 340.908C515.501 341.653 515.276 342.624 515.224 343.82C515.206 344.583 515.198 345.276 515.198 345.9C515.198 346.507 515.206 347.2 515.224 347.98C515.293 349.765 515.752 351.057 516.602 351.854C517.451 352.651 518.526 353.05 519.826 353.05ZM541.114 355C540.923 355 540.776 354.948 540.672 354.844C540.568 354.723 540.516 354.575 540.516 354.402V337.424C540.516 337.233 540.568 337.086 540.672 336.982C540.776 336.861 540.923 336.8 541.114 336.8H542.44C542.63 336.8 542.778 336.861 542.882 336.982C543.003 337.086 543.064 337.233 543.064 337.424V344.6H552.008V337.424C552.008 337.233 552.06 337.086 552.164 336.982C552.285 336.861 552.432 336.8 552.606 336.8H553.932C554.122 336.8 554.27 336.861 554.374 336.982C554.495 337.086 554.556 337.233 554.556 337.424V354.402C554.556 354.575 554.495 354.723 554.374 354.844C554.27 354.948 554.122 355 553.932 355H552.606C552.432 355 552.285 354.948 552.164 354.844C552.06 354.723 552.008 354.575 552.008 354.402V346.94H543.064V354.402C543.064 354.575 543.003 354.723 542.882 354.844C542.778 354.948 542.63 355 542.44 355H541.114ZM567.605 358.614C567.431 358.614 567.284 358.562 567.163 358.458C567.059 358.354 567.007 358.207 567.007 358.016V353.258C567.007 353.085 567.059 352.946 567.163 352.842C567.284 352.721 567.431 352.66 567.605 352.66H568.151C568.567 352.66 568.931 352.469 569.243 352.088C569.555 351.707 569.815 351.126 570.023 350.346C570.248 349.549 570.413 348.543 570.517 347.33C570.621 346.117 570.673 344.678 570.673 343.014V337.398C570.673 337.225 570.725 337.086 570.829 336.982C570.95 336.861 571.097 336.8 571.271 336.8H581.411C581.601 336.8 581.749 336.861 581.853 336.982C581.974 337.086 582.035 337.233 582.035 337.424V352.66H583.309C583.499 352.66 583.647 352.721 583.751 352.842C583.872 352.946 583.933 353.085 583.933 353.258V358.016C583.933 358.189 583.872 358.328 583.751 358.432C583.647 358.553 583.499 358.614 583.309 358.614H581.983C581.792 358.614 581.645 358.553 581.541 358.432C581.437 358.328 581.385 358.189 581.385 358.016V355H569.555V358.016C569.555 358.189 569.494 358.328 569.373 358.432C569.269 358.553 569.121 358.614 568.931 358.614H567.605ZM571.479 352.66H579.487V339.14H573.169V343.326C573.169 345.787 573.021 347.772 572.727 349.28C572.449 350.788 572.033 351.915 571.479 352.66Z" fill="white"/>
<path d="M294.5 213C244.833 214.833 162.4 177.4 230 13C235.007 0.200002 252.05 39.6667 257.5 60.5M294.5 213C346.333 213.833 431.8 175 359 13C354.343 2.2 338.582 41.3333 333.5 60.5M294.5 213C328.065 188.456 355.5 153.5 333.5 60.5M294.5 213C262.509 189.866 234.892 135.5 257.5 60.5M333.5 60.5C324.688 42.0379 317 25 294.5 7C271 28.5 265.907 41.4574 257.5 60.5" stroke="white" stroke-width="10"/>
<path d="M8.8 311C8.21333 311 7.76 310.84 7.44 310.52C7.12 310.147 6.96 309.693 6.96 309.16V256.92C6.96 256.333 7.12 255.88 7.44 255.56C7.76 255.187 8.21333 255 8.8 255H12.88C13.4667 255 13.92 255.187 14.24 255.56C14.6133 255.88 14.8 256.333 14.8 256.92V279H23.84L38.08 256.28C38.3467 255.853 38.6933 255.533 39.12 255.32C39.5467 255.107 40.1067 255 40.8 255H45.12C45.7067 255 46.1333 255.16 46.4 255.48C46.6667 255.8 46.8 256.173 46.8 256.6C46.8 256.92 46.6667 257.267 46.4 257.64L31.04 282.12L47.92 308.2C48.08 308.413 48.16 308.707 48.16 309.08C48.16 309.613 47.9733 310.067 47.6 310.44C47.28 310.813 46.8533 311 46.32 311H41.76C41.1733 311 40.72 310.893 40.4 310.68C40.1333 310.413 39.8933 310.12 39.68 309.8L24.16 286.2H14.8V309.16C14.8 309.693 14.6133 310.147 14.24 310.52C13.92 310.84 13.4667 311 12.88 311H8.8ZM110.372 311C109.945 311 109.572 310.84 109.252 310.52C108.932 310.2 108.772 309.827 108.772 309.4C108.772 309.133 108.799 308.84 108.852 308.52L128.692 256.76C128.905 256.227 129.199 255.8 129.572 255.48C129.945 255.16 130.505 255 131.252 255H136.692C137.385 255 137.919 255.16 138.292 255.48C138.719 255.8 139.039 256.227 139.252 256.76L159.012 308.52C159.119 308.84 159.172 309.133 159.172 309.4C159.172 309.827 159.012 310.2 158.692 310.52C158.372 310.84 157.999 311 157.572 311H153.492C152.852 311 152.372 310.84 152.052 310.52C151.785 310.2 151.599 309.907 151.492 309.64L147.092 298.28H120.852L116.452 309.64C116.399 309.907 116.212 310.2 115.892 310.52C115.572 310.84 115.092 311 114.452 311H110.372ZM123.172 291.4H144.772L133.972 263L123.172 291.4ZM226.286 311C225.752 311 225.299 310.84 224.926 310.52C224.606 310.147 224.446 309.693 224.446 309.16V305.8C224.446 305.213 224.606 304.76 224.926 304.44C225.299 304.067 225.752 303.88 226.286 303.88H229.086C230.792 303.88 232.259 303.48 233.486 302.68C234.712 301.827 235.859 300.52 236.926 298.76C238.046 297 239.192 294.707 240.366 291.88L255.966 256.36C256.126 255.88 256.392 255.533 256.766 255.32C257.139 255.107 257.539 255 257.966 255H262.286C262.712 255 263.086 255.16 263.406 255.48C263.726 255.8 263.886 256.173 263.886 256.6C263.886 256.813 263.859 257.027 263.806 257.24C263.806 257.4 263.752 257.56 263.646 257.72L247.326 294.68C246.046 297.507 244.846 299.96 243.726 302.04C242.606 304.067 241.406 305.747 240.126 307.08C238.846 308.413 237.352 309.4 235.646 310.04C233.939 310.68 231.886 311 229.486 311H226.286ZM239.886 297.4L218.046 257.56C217.886 257.24 217.806 256.947 217.806 256.68C217.806 256.253 217.966 255.88 218.286 255.56C218.659 255.187 219.059 255 219.486 255H223.966C224.446 255 224.846 255.107 225.166 255.32C225.486 255.533 225.752 255.88 225.966 256.36L244.126 289.4L239.886 297.4ZM346.995 311.8C342.088 311.8 338.008 310.893 334.755 309.08C331.555 307.267 329.128 304.733 327.475 301.48C325.822 298.227 324.915 294.44 324.755 290.12C324.702 287.933 324.675 285.587 324.675 283.08C324.675 280.573 324.702 278.173 324.755 275.88C324.915 271.56 325.822 267.773 327.475 264.52C329.128 261.267 331.555 258.733 334.755 256.92C338.008 255.107 342.088 254.2 346.995 254.2C350.675 254.2 353.902 254.707 356.675 255.72C359.448 256.733 361.742 258.093 363.555 259.8C365.422 261.507 366.835 263.427 367.795 265.56C368.755 267.64 369.288 269.8 369.395 272.04C369.448 272.52 369.288 272.92 368.915 273.24C368.595 273.56 368.195 273.72 367.715 273.72H363.315C362.835 273.72 362.408 273.587 362.035 273.32C361.715 273.053 361.475 272.573 361.315 271.88C360.408 267.72 358.702 264.867 356.195 263.32C353.742 261.773 350.648 261 346.915 261C342.648 261 339.262 262.227 336.755 264.68C334.248 267.08 332.888 270.947 332.675 276.28C332.515 280.653 332.515 285.133 332.675 289.72C332.888 295.053 334.248 298.947 336.755 301.4C339.262 303.8 342.648 305 346.915 305C350.648 305 353.742 304.227 356.195 302.68C358.702 301.133 360.408 298.28 361.315 294.12C361.475 293.427 361.715 292.947 362.035 292.68C362.408 292.413 362.835 292.28 363.315 292.28H367.715C368.195 292.28 368.595 292.44 368.915 292.76C369.288 293.08 369.448 293.48 369.395 293.96C369.288 296.2 368.755 298.387 367.795 300.52C366.835 302.6 365.422 304.493 363.555 306.2C361.742 307.907 359.448 309.267 356.675 310.28C353.902 311.293 350.675 311.8 346.995 311.8ZM432.356 311C431.93 311 431.556 310.84 431.236 310.52C430.916 310.2 430.756 309.827 430.756 309.4C430.756 309.133 430.783 308.84 430.836 308.52L450.676 256.76C450.89 256.227 451.183 255.8 451.556 255.48C451.93 255.16 452.49 255 453.236 255H458.676C459.37 255 459.903 255.16 460.276 255.48C460.703 255.8 461.023 256.227 461.236 256.76L480.996 308.52C481.103 308.84 481.156 309.133 481.156 309.4C481.156 309.827 480.996 310.2 480.676 310.52C480.356 310.84 479.983 311 479.556 311H475.476C474.836 311 474.356 310.84 474.036 310.52C473.77 310.2 473.583 309.907 473.476 309.64L469.076 298.28H442.836L438.436 309.64C438.383 309.907 438.196 310.2 437.876 310.52C437.556 310.84 437.076 311 436.436 311H432.356ZM445.156 291.4H466.756L455.956 263L445.156 291.4ZM547.55 311C546.963 311 546.51 310.84 546.19 310.52C545.87 310.147 545.71 309.693 545.71 309.16V256.92C545.71 256.333 545.87 255.88 546.19 255.56C546.51 255.187 546.963 255 547.55 255H567.87C571.817 255 575.23 255.64 578.11 256.92C581.043 258.2 583.31 260.12 584.91 262.68C586.51 265.187 587.31 268.333 587.31 272.12C587.31 275.907 586.51 279.053 584.91 281.56C583.31 284.067 581.043 285.96 578.11 287.24C575.23 288.52 571.817 289.16 567.87 289.16H553.71V309.16C553.71 309.693 553.523 310.147 553.15 310.52C552.83 310.84 552.377 311 551.79 311H547.55ZM553.63 282.44H567.47C571.417 282.44 574.377 281.56 576.35 279.8C578.323 278.04 579.31 275.48 579.31 272.12C579.31 268.813 578.35 266.253 576.43 264.44C574.51 262.627 571.523 261.72 567.47 261.72H553.63V282.44Z" fill="white"/>
</svg>
