<svg width="451" height="332" viewBox="0 0 451 332" fill="none" xmlns="http://www.w3.org/2000/svg">
<path d="M225.042 213C175.375 214.833 92.9418 177.4 160.542 13C165.549 0.200002 182.592 39.6667 188.042 60.5C196.449 41.4574 201.542 28.5 225.042 7C247.542 25 255.23 42.0379 264.042 60.5C269.124 41.3333 284.885 2.2 289.542 13C362.342 175 276.875 213.833 225.042 213Z" fill="#F06EBC"/>
<path d="M225.042 213C175.375 214.833 92.9418 177.4 160.542 13C165.549 0.200002 182.592 39.6667 188.042 60.5M225.042 213C276.875 213.833 362.342 175 289.542 13C284.885 2.2 269.124 41.3333 264.042 60.5M225.042 213C258.607 188.456 286.042 153.5 264.042 60.5M225.042 213C193.05 189.866 165.434 135.5 188.042 60.5M264.042 60.5C255.23 42.0379 247.542 25 225.042 7C201.542 28.5 196.449 41.4574 188.042 60.5" stroke="white" stroke-width="10"/>
<path d="M8.8 312C8.21333 312 7.76 311.84 7.44 311.52C7.12 311.147 6.96 310.693 6.96 310.16V257.92C6.96 257.333 7.12 256.88 7.44 256.56C7.76 256.187 8.21333 256 8.8 256H12.88C13.4667 256 13.92 256.187 14.24 256.56C14.6133 256.88 14.8 257.333 14.8 257.92V280H23.84L38.08 257.28C38.3467 256.853 38.6933 256.533 39.12 256.32C39.5467 256.107 40.1067 256 40.8 256H45.12C45.7067 256 46.1333 256.16 46.4 256.48C46.6667 256.8 46.8 257.173 46.8 257.6C46.8 257.92 46.6667 258.267 46.4 258.64L31.04 283.12L47.92 309.2C48.08 309.413 48.16 309.707 48.16 310.08C48.16 310.613 47.9733 311.067 47.6 311.44C47.28 311.813 46.8533 312 46.32 312H41.76C41.1733 312 40.72 311.893 40.4 311.68C40.1333 311.413 39.8933 311.12 39.68 310.8L24.16 287.2H14.8V310.16C14.8 310.693 14.6133 311.147 14.24 311.52C13.92 311.84 13.4667 312 12.88 312H8.8ZM82.3719 312C81.9452 312 81.5719 311.84 81.2519 311.52C80.9319 311.2 80.7719 310.827 80.7719 310.4C80.7719 310.133 80.7985 309.84 80.8519 309.52L100.692 257.76C100.905 257.227 101.199 256.8 101.572 256.48C101.945 256.16 102.505 256 103.252 256H108.692C109.385 256 109.919 256.16 110.292 256.48C110.719 256.8 111.039 257.227 111.252 257.76L131.012 309.52C131.119 309.84 131.172 310.133 131.172 310.4C131.172 310.827 131.012 311.2 130.692 311.52C130.372 311.84 129.999 312 129.572 312H125.492C124.852 312 124.372 311.84 124.052 311.52C123.785 311.2 123.599 310.907 123.492 310.64L119.092 299.28H92.8519L88.4519 310.64C88.3985 310.907 88.2119 311.2 87.8919 311.52C87.5719 311.84 87.0919 312 86.4519 312H82.3719ZM95.1719 292.4H116.772L105.972 264L95.1719 292.4ZM170.286 312C169.752 312 169.299 311.84 168.926 311.52C168.606 311.147 168.446 310.693 168.446 310.16V306.8C168.446 306.213 168.606 305.76 168.926 305.44C169.299 305.067 169.752 304.88 170.286 304.88H173.086C174.792 304.88 176.259 304.48 177.486 303.68C178.712 302.827 179.859 301.52 180.926 299.76C182.046 298 183.192 295.707 184.366 292.88L199.966 257.36C200.126 256.88 200.392 256.533 200.766 256.32C201.139 256.107 201.539 256 201.966 256H206.286C206.712 256 207.086 256.16 207.406 256.48C207.726 256.8 207.886 257.173 207.886 257.6C207.886 257.813 207.859 258.027 207.806 258.24C207.806 258.4 207.752 258.56 207.646 258.72L191.326 295.68C190.046 298.507 188.846 300.96 187.726 303.04C186.606 305.067 185.406 306.747 184.126 308.08C182.846 309.413 181.352 310.4 179.646 311.04C177.939 311.68 175.886 312 173.486 312H170.286ZM183.886 298.4L162.046 258.56C161.886 258.24 161.806 257.947 161.806 257.68C161.806 257.253 161.966 256.88 162.286 256.56C162.659 256.187 163.059 256 163.486 256H167.966C168.446 256 168.846 256.107 169.166 256.32C169.486 256.533 169.752 256.88 169.966 257.36L188.126 290.4L183.886 298.4ZM262.995 312.8C258.088 312.8 254.008 311.893 250.755 310.08C247.555 308.267 245.128 305.733 243.475 302.48C241.822 299.227 240.915 295.44 240.755 291.12C240.702 288.933 240.675 286.587 240.675 284.08C240.675 281.573 240.702 279.173 240.755 276.88C240.915 272.56 241.822 268.773 243.475 265.52C245.128 262.267 247.555 259.733 250.755 257.92C254.008 256.107 258.088 255.2 262.995 255.2C266.675 255.2 269.902 255.707 272.675 256.72C275.448 257.733 277.742 259.093 279.555 260.8C281.422 262.507 282.835 264.427 283.795 266.56C284.755 268.64 285.288 270.8 285.395 273.04C285.448 273.52 285.288 273.92 284.915 274.24C284.595 274.56 284.195 274.72 283.715 274.72H279.315C278.835 274.72 278.408 274.587 278.035 274.32C277.715 274.053 277.475 273.573 277.315 272.88C276.408 268.72 274.702 265.867 272.195 264.32C269.742 262.773 266.648 262 262.915 262C258.648 262 255.262 263.227 252.755 265.68C250.248 268.08 248.888 271.947 248.675 277.28C248.515 281.653 248.515 286.133 248.675 290.72C248.888 296.053 250.248 299.947 252.755 302.4C255.262 304.8 258.648 306 262.915 306C266.648 306 269.742 305.227 272.195 303.68C274.702 302.133 276.408 299.28 277.315 295.12C277.475 294.427 277.715 293.947 278.035 293.68C278.408 293.413 278.835 293.28 279.315 293.28H283.715C284.195 293.28 284.595 293.44 284.915 293.76C285.288 294.08 285.448 294.48 285.395 294.96C285.288 297.2 284.755 299.387 283.795 301.52C282.835 303.6 281.422 305.493 279.555 307.2C277.742 308.907 275.448 310.267 272.675 311.28C269.902 312.293 266.675 312.8 262.995 312.8ZM320.356 312C319.93 312 319.556 311.84 319.236 311.52C318.916 311.2 318.756 310.827 318.756 310.4C318.756 310.133 318.783 309.84 318.836 309.52L338.676 257.76C338.89 257.227 339.183 256.8 339.556 256.48C339.93 256.16 340.49 256 341.236 256H346.676C347.37 256 347.903 256.16 348.276 256.48C348.703 256.8 349.023 257.227 349.236 257.76L368.996 309.52C369.103 309.84 369.156 310.133 369.156 310.4C369.156 310.827 368.996 311.2 368.676 311.52C368.356 311.84 367.983 312 367.556 312H363.476C362.836 312 362.356 311.84 362.036 311.52C361.77 311.2 361.583 310.907 361.476 310.64L357.076 299.28H330.836L326.436 310.64C326.383 310.907 326.196 311.2 325.876 311.52C325.556 311.84 325.076 312 324.436 312H320.356ZM333.156 292.4H354.756L343.956 264L333.156 292.4ZM407.55 312C406.963 312 406.51 311.84 406.19 311.52C405.87 311.147 405.71 310.693 405.71 310.16V257.92C405.71 257.333 405.87 256.88 406.19 256.56C406.51 256.187 406.963 256 407.55 256H427.87C431.817 256 435.23 256.64 438.11 257.92C441.043 259.2 443.31 261.12 444.91 263.68C446.51 266.187 447.31 269.333 447.31 273.12C447.31 276.907 446.51 280.053 444.91 282.56C443.31 285.067 441.043 286.96 438.11 288.24C435.23 289.52 431.817 290.16 427.87 290.16H413.71V310.16C413.71 310.693 413.523 311.147 413.15 311.52C412.83 311.84 412.377 312 411.79 312H407.55ZM413.63 283.44H427.47C431.417 283.44 434.377 282.56 436.35 280.8C438.323 279.04 439.31 276.48 439.31 273.12C439.31 269.813 438.35 267.253 436.43 265.44C434.51 263.627 431.523 262.72 427.47 262.72H413.63V283.44Z" fill="white"/>
</svg>
